# xmcd CD database file
#
# Track frame offsets:
#	150
#	9805
#	21767
#	33094
#	44829
#	55563
#	65713
#	74235
#	95286
#	109589
#	122842
#	129634
#	139708
#	159132
#	172287
#	184083
#	196903
#	209233
#	220491
#	234244
#
# Disc length: 3369 seconds
#
# Revision: 0
# Processed by: cddbd v1.5.2PL0 Copyright (c) Steve Scherf et al.
# Submitted via: CDex 1.70beta2
#
DISCID=260d2714
DTITLE=Diverse - Trucker and Country Hits   CD5
DYEAR=2008
DGENRE=Country
TTITLE0=Billy Swan - I Can Help
TTITLE1=Lynn Anderson - Rose Garden
TTITLE2=Don Gibson - Sea Of Heartbreak
TTITLE3=Charlie Pride - There Goes My Everything
TTITLE4=Leroy Van Dyke -  Walk On By
TTITLE5=Satler Brothers - Do You Know You Are My Sunshine
TTITLE6=Ricky Skaggs - A Few More Seasons
TTITLE7=Sammy's Saloon - The Bluest Eyes Of Texas
TTITLE8=Emmylou Harris - High Powered Love
TTITLE9=Tennessee - Train To Santa Fe
TTITLE10=Waylon Jennings - It's So Easy
TTITLE11=Conway Twitty - It's Only Make Believe
TTITLE12=Tanya Tucker - Delta Dawn
TTITLE13=Marty Robbins - Devil Women
TTITLE14=Ernie Ford - Sixteen Tons
TTITLE15=Billie Jo Spears - Dallas
TTITLE16=Charlie Rich - Behind Closed Doors
TTITLE17=Tammy Wynette - D.I.V.O.R.C.E
TTITLE18=Anne Murray - The Last Thing On My Mind
TTITLE19=Kris Kristofferso - A Moment Of Forever
EXTD=YEAR: 2008
EXTT0=
EXTT1=
EXTT2=
EXTT3=
EXTT4=
EXTT5=
EXTT6=
EXTT7=
EXTT8=
EXTT9=
EXTT10=
EXTT11=
EXTT12=
EXTT13=
EXTT14=
EXTT15=
EXTT16=
EXTT17=
EXTT18=
EXTT19=
PLAYORDER=
